{
  "source": "C:\\Users\\Peter\\Desktop\\stuff\\MIUN\\quantitative_research\\video_compression\\videos\\BVI-HD\\Hamster_1920x1080_60fps.mp4",
  "output": "C:\\Users\\Peter\\Desktop\\stuff\\MIUN\\quantitative_research\\video_compression\\compressed_videos\\BVI-HD\\h264\\12\\Hamster_1920x1080_60fps_h264.mp4",
  "codec": "h264",
  "ok": "Input #0, mov,mp4,m4a,3gp,3g2,mj2, from 'C:\\Users\\Peter\\Desktop\\stuff\\MIUN\\quantitative_research\\video_compression\\videos\\BVI-HD\\Hamster_1920x1080_60fps.mp4':\n  Metadata:\n    major_brand     : isom\n    minor_version   : 512\n    compatible_brands: isomiso2avc1mp41\n    encoder         : Lavf54.28.101\n  Duration: 00:00:05.00, start: 0.000000, bitrate: 208485 kb/s\n  Stream #0:0[0x1](und): Video: h264 (High 4:4:4 Predictive) (avc1 / 0x31637661), yuv420p(progressive), 1920x1080, 208481 kb/s, 60 fps, 60 tbr, 60 tbn (default)\n    Metadata:\n      handler_name    : VideoHandler\n      vendor_id       : [0][0][0][0]\n[out#0/mp4 @ 000002e8a9e89980] Codec AVOption b:a (set bitrate (in bits/s)) has not been used for any stream. The most likely reason is either wrong type (e.g. a video option with no video streams) or that it is a private option of some decoder which was not actually used for any stream.\nStream mapping:\n  Stream #0:0 -> #0:0 (h264 (native) -> h264 (libx264))\nPress [q] to stop, [?] for help\n[libx264 @ 000002e8a9e8d8c0] using cpu capabilities: MMX2 SSE2Fast SSSE3 SSE4.2 AVX FMA3 BMI2 AVX2\n[libx264 @ 000002e8a9e8d8c0] profile High, level 5.0, 4:2:0, 8-bit\n[libx264 @ 000002e8a9e8d8c0] 264 - core 165 r3222 b35605a - H.264/MPEG-4 AVC codec - Copyleft 2003-2025 - http://www.videolan.org/x264.html - options: cabac=1 ref=5 deblock=1:0:0 analyse=0x3:0x113 me=hex subme=8 psy=1 psy_rd=1.00:0.00 mixed_ref=1 me_range=16 chroma_me=1 trellis=2 8x8dct=1 cqm=0 deadzone=21,11 fast_pskip=1 chroma_qp_offset=-2 threads=18 lookahead_threads=3 sliced_threads=0 nr=0 decimate=1 interlaced=0 bluray_compat=0 constrained_intra=0 bframes=3 b_pyramid=2 b_adapt=1 b_bias=0 direct=3 weightb=1 open_gop=0 weightp=2 keyint=250 keyint_min=25 scenecut=40 intra_refresh=0 rc_lookahead=50 rc=cbr mbtree=1 bitrate=12000 ratetol=1.0 qcomp=0.60 qpmin=0 qpmax=69 qpstep=4 vbv_maxrate=12000 vbv_bufsize=12000 nal_hrd=none filler=0 ip_ratio=1.40 aq=1:1.00\nOutput #0, mp4, to 'C:\\Users\\Peter\\Desktop\\stuff\\MIUN\\quantitative_research\\video_compression\\compressed_videos\\BVI-HD\\h264\\12\\Hamster_1920x1080_60fps_h264.mp4':\n  Metadata:\n    major_brand     : isom\n    minor_version   : 512\n    compatible_brands: isomiso2avc1mp41\n    encoder         : Lavf62.3.100\n  Stream #0:0(und): Video: h264 (avc1 / 0x31637661), yuv420p(tv, progressive), 1920x1080, q=2-31, 12000 kb/s, 60 fps, 15360 tbn (default)\n    Metadata:\n      encoder         : Lavc62.11.100 libx264\n      handler_name    : VideoHandler\n      vendor_id       : [0][0][0][0]\n    Side data:\n      cpb: bitrate max/min/avg: 12000000/0/12000000 buffer size: 12000000 vbv_delay: N/A\nframe=    0 fps=0.0 q=0.0 size=       0KiB time=N/A bitrate=N/A speed=N/A elapsed=0:00:00.51    \nframe=    0 fps=0.0 q=0.0 size=       0KiB time=N/A bitrate=N/A speed=N/A elapsed=0:00:01.17    \nframe=    0 fps=0.0 q=0.0 size=       0KiB time=N/A bitrate=N/A speed=N/A elapsed=0:00:01.75    \nframe=    9 fps=3.8 q=25.0 size=       0KiB time=00:00:00.05 bitrate=   7.7kbits/s speed=0.0212x elapsed=0:00:02.36    \nframe=   21 fps=7.0 q=25.0 size=     256KiB time=00:00:00.31 bitrate=6623.8kbits/s speed=0.105x elapsed=0:00:03.00    \nframe=   29 fps=8.2 q=25.0 size=     512KiB time=00:00:00.45 bitrate=9321.5kbits/s speed=0.127x elapsed=0:00:03.55    \nframe=   42 fps= 10 q=25.0 size=     768KiB time=00:00:00.60 bitrate=10486.4kbits/s speed=0.145x elapsed=0:00:04.13    \nframe=   57 fps= 12 q=25.0 size=    1280KiB time=00:00:00.85 bitrate=12336.6kbits/s speed=0.177x elapsed=0:00:04.79    \nframe=   73 fps= 13 q=26.0 size=    1536KiB time=00:00:01.18 bitrate=10633.8kbits/s speed=0.217x elapsed=0:00:05.45    \nframe=   85 fps= 14 q=26.0 size=    1792KiB time=00:00:01.31 bitrate=11149.7kbits/s speed=0.215x elapsed=0:00:06.12    \nframe=   93 fps= 14 q=26.0 size=    2048KiB time=00:00:01.51 bitrate=11062.2kbits/s speed=0.226x elapsed=0:00:06.71    \nframe=  102 fps= 14 q=26.0 size=    2560KiB time=00:00:01.66 bitrate=12583.1kbits/s speed=0.23x elapsed=0:00:07.25    \nframe=  121 fps= 15 q=27.0 size=    3072KiB time=00:00:01.85 bitrate=13603.4kbits/s speed=0.236x elapsed=0:00:07.82    \nframe=  133 fps= 16 q=27.0 size=    3328KiB time=00:00:02.18 bitrate=12487.0kbits/s speed=0.256x elapsed=0:00:08.53    \nframe=  149 fps= 16 q=27.0 size=    3840KiB time=00:00:02.45 bitrate=12839.9kbits/s speed=0.268x elapsed=0:00:09.15    \nframe=  164 fps= 17 q=27.0 size=    4096KiB time=00:00:02.63 bitrate=12742.3kbits/s speed=0.271x elapsed=0:00:09.73    \nframe=  181 fps= 17 q=27.0 size=    4608KiB time=00:00:02.93 bitrate=12869.0kbits/s speed=0.281x elapsed=0:00:10.43    \nframe=  196 fps= 18 q=27.0 size=    4864KiB time=00:00:03.16 bitrate=12583.0kbits/s speed=0.286x elapsed=0:00:11.07    \nframe=  209 fps= 18 q=28.0 size=    5120KiB time=00:00:03.40 bitrate=12336.3kbits/s speed=0.291x elapsed=0:00:11.70    \nframe=  223 fps= 18 q=27.0 size=    5632KiB time=00:00:03.65 bitrate=12640.5kbits/s speed=0.296x elapsed=0:00:12.31    \nframe=  234 fps= 18 q=24.0 size=    5888KiB time=00:00:03.86 bitrate=12474.5kbits/s speed=0.299x elapsed=0:00:12.93    \nframe=  255 fps= 19 q=28.0 size=    6656KiB time=00:00:04.06 bitrate=13408.1kbits/s speed= 0.3x elapsed=0:00:13.55    \nframe=  276 fps= 19 q=27.0 size=    7168KiB time=00:00:04.51 bitrate=13000.9kbits/s speed=0.319x elapsed=0:00:14.17    \nframe=  297 fps= 20 q=-1.0 size=    7424KiB time=00:00:04.91 bitrate=12369.7kbits/s speed=0.332x elapsed=0:00:14.79    \n[mp4 @ 000002e8a9e89a80] Starting second pass: moving the moov atom to the beginning of the file\n[out#0/mp4 @ 000002e8a9e89980] video:7587KiB audio:0KiB subtitle:0KiB other streams:0KiB global headers:0KiB muxing overhead: 0.058578%\nframe=  300 fps= 20 q=-1.0 Lsize=    7592KiB time=00:00:04.96 bitrate=12521.4kbits/s speed=0.334x elapsed=0:00:14.85    \n[libx264 @ 000002e8a9e8d8c0] frame I:2     Avg QP:19.00  size: 91244\n[libx264 @ 000002e8a9e8d8c0] frame P:76    Avg QP:23.30  size: 43307\n[libx264 @ 000002e8a9e8d8c0] frame B:222   Avg QP:24.84  size: 19345\n[libx264 @ 000002e8a9e8d8c0] consecutive B-frames:  1.0%  0.0%  3.0% 96.0%\n[libx264 @ 000002e8a9e8d8c0] mb I  I16..4: 16.1% 80.8%  3.1%\n[libx264 @ 000002e8a9e8d8c0] mb P  I16..4:  0.9% 22.0%  1.0%  P16..4: 22.8%  7.8%  3.5%  0.0%  0.0%    skip:42.1%\n[libx264 @ 000002e8a9e8d8c0] mb B  I16..4:  0.3%  4.3%  0.3%  B16..8: 26.4%  6.2%  1.0%  direct: 4.3%  skip:57.1%  L0:52.3% L1:37.2% BI:10.6%\n[libx264 @ 000002e8a9e8d8c0] 8x8 transform intra:89.8% inter:86.3%\n[libx264 @ 000002e8a9e8d8c0] direct mvs  spatial:95.5% temporal:4.5%\n[libx264 @ 000002e8a9e8d8c0] coded y,uvDC,uvAC intra: 63.4% 73.8% 44.6% inter: 12.4% 19.9% 3.9%\n[libx264 @ 000002e8a9e8d8c0] i16 v,h,dc,p: 49% 23%  5% 23%\n[libx264 @ 000002e8a9e8d8c0] i8 v,h,dc,ddl,ddr,vr,hd,vl,hu: 18% 17% 31%  4%  6%  6%  7%  5%  7%\n[libx264 @ 000002e8a9e8d8c0] i4 v,h,dc,ddl,ddr,vr,hd,vl,hu: 16% 16% 16%  5% 12% 10% 14%  5%  5%\n[libx264 @ 000002e8a9e8d8c0] i8c dc,h,v,p: 51% 21% 18% 10%\n[libx264 @ 000002e8a9e8d8c0] Weighted P-Frames: Y:0.0% UV:0.0%\n[libx264 @ 000002e8a9e8d8c0] ref P L0: 38.3% 12.4% 23.3% 11.7% 14.4%\n[libx264 @ 000002e8a9e8d8c0] ref B L0: 66.0% 21.7%  9.1%  3.2%\n[libx264 @ 000002e8a9e8d8c0] ref B L1: 92.1%  7.9%\n[libx264 @ 000002e8a9e8d8c0] kb/s:12429.46\n",
  "seconds": 15.638636589050293,
  "probe_out": {}
}